<svg width="45" height="45" viewBox="0 0 45 45" fill="none" xmlns="http://www.w3.org/2000/svg">
<path d="M42.5171 0H2.48289C1.11163 0 0 1.11163 0 2.48289V42.5171C0 43.8884 1.11163 45 2.48289 45H42.5171C43.8884 45 45 43.8884 45 42.5171V2.48289C45 1.11163 43.8884 0 42.5171 0Z" fill="#3D5A98"/>
<path d="M31.0484 44.9961V27.5702H36.8963L37.7708 20.7794H31.0484V16.4448C31.0484 14.479 31.5959 13.1368 34.4134 13.1368H38.0103V7.05313C36.2685 6.87193 34.5182 6.78562 32.767 6.79458C27.5883 6.79458 24.0217 9.95047 24.0217 15.7718V20.7794H18.1738V27.5702H24.0217V44.9961H31.0484Z" fill="white"/>
</svg>
