<svg width="47" height="46" viewBox="0 0 47 46" fill="none" xmlns="http://www.w3.org/2000/svg">
<circle cx="23.5" cy="23" r="23" fill="#B9018E"/>
<path d="M33.7505 24.7084H25.2076V33.2512C25.2076 33.7044 25.0276 34.139 24.7072 34.4594C24.3868 34.7798 23.9522 34.9598 23.4991 34.9598C23.0459 34.9598 22.6113 34.7798 22.2909 34.4594C21.9705 34.139 21.7905 33.7044 21.7905 33.2512V24.7084H13.2476C12.7945 24.7084 12.3599 24.5284 12.0395 24.2079C11.7191 23.8875 11.5391 23.4529 11.5391 22.9998C11.5391 22.5467 11.7191 22.1121 12.0395 21.7917C12.3599 21.4712 12.7945 21.2912 13.2476 21.2912H21.7905V12.7484C21.7905 12.2952 21.9705 11.8606 22.2909 11.5402C22.6113 11.2198 23.0459 11.0398 23.4991 11.0398C23.9522 11.0398 24.3868 11.2198 24.7072 11.5402C25.0276 11.8606 25.2076 12.2952 25.2076 12.7484V21.2912H33.7505C34.2036 21.2912 34.6382 21.4712 34.9586 21.7917C35.2791 22.1121 35.4591 22.5467 35.4591 22.9998C35.4591 23.4529 35.2791 23.8875 34.9586 24.2079C34.6382 24.5284 34.2036 24.7084 33.7505 24.7084Z" fill="white"/>
</svg>
